<svg width="26" height="34" viewBox="0 0 26 34" fill="none" xmlns="http://www.w3.org/2000/svg">
<path d="M12.7041 0C5.68768 0 0 4.76045 0 11.7769C0 17.5448 5.64371 24.2936 9.05059 27.7005C10.169 28.8189 11.1536 28.9393 12.7041 28.9393C14.2546 28.9393 15.2392 28.8189 16.3576 27.7005C19.7645 24.2936 25.4082 17.5467 25.4082 11.7769C25.4082 4.76045 19.7205 0 12.7041 0Z" fill="#E84242"/>
<path d="M14.1677 34.0003H11.2388C10.91 34.0003 10.627 33.7728 10.5563 33.4517L10.0458 31.341C9.95025 30.9051 10.281 30.4902 10.7284 30.4902H14.6782C15.1256 30.4902 15.4582 30.9032 15.3607 31.341L14.8503 33.4517C14.7795 33.7728 14.4947 34.0003 14.1677 34.0003Z" fill="#E84242"/>
<path d="M14.6397 0.14721C14.0088 0.0497069 13.3626 0 12.703 0C11.9689 0 11.2501 0.0630897 10.5503 0.181623C7.58699 1.51608 5.28516 4.74898 5.28516 10.5265C5.28516 16.6157 8.64232 24.1062 11.468 28.8839C11.8427 28.9259 12.248 28.9374 12.703 28.9374C13.1581 28.9374 13.5634 28.9259 13.9381 28.8839C16.7638 24.1043 20.1209 16.6176 20.1209 10.5265C20.1209 4.43544 17.6757 1.43769 14.6397 0.14721Z" fill="#D51317"/>
</svg>
